<svg xmlns="http://www.w3.org/2000/svg" viewBox="0 0 1600 520" preserveAspectRatio="xMidYMid slice"><defs><linearGradient id="bg" x1="0" y1="0" x2="1" y2="1"><stop offset="0" stop-color="#68000c"/><stop offset=".42" stop-color="#d3061e"/><stop offset=".72" stop-color="#ee263b"/><stop offset="1" stop-color="#ff8a92"/></linearGradient><radialGradient id="light"><stop offset="0" stop-color="#fff" stop-opacity=".2"/><stop offset="1" stop-color="#fff" stop-opacity="0"/></radialGradient><linearGradient id="city" x1="0" y1="0" x2="0" y2="1"><stop offset="0" stop-color="#430007" stop-opacity=".42"/><stop offset="1" stop-color="#250004" stop-opacity=".7"/></linearGradient></defs><rect width="1600" height="520" fill="url(#bg)"/><circle cx="1320" cy="90" r="360" fill="url(#light)"/><circle cx="210" cy="65" r="210" fill="#fff" opacity=".045"/><circle cx="870" cy="-20" r="270" fill="#fff" opacity=".035"/><path d="M0 400 Q210 360 420 400T840 392T1260 386T1600 392V520H0Z" fill="#550009" opacity=".3"/><g fill="url(#city)"><path d="M0 420V280h92v140zM108 420V235h118v185zM242 420V320h72v100zM330 420V265h126v155zM470 420V300h82v120zM566 420V220h142v200zM724 420V310h80v110zM820 420V255h128v165zM964 420V290h94v130zM1070 420V205h142v215zM1228 420V300h82v120zM1324 420V235h126v185zM1464 420V285h82v135zM1560 420V250h40v170z"/><path d="M0 420h1600v100H0z"/></g><g fill="#ffccd0" opacity=".16"><rect x="132" y="275" width="8" height="10" rx="2"/><rect x="156" y="275" width="8" height="10" rx="2"/><rect x="182" y="275" width="8" height="10" rx="2"/><rect x="350" y="305" width="8" height="10" rx="2"/><rect x="376" y="305" width="8" height="10" rx="2"/><rect x="595" y="255" width="9" height="11" rx="2"/><rect x="622" y="255" width="9" height="11" rx="2"/><rect x="650" y="255" width="9" height="11" rx="2"/><rect x="1110" y="240" width="9" height="11" rx="2"/><rect x="1140" y="240" width="9" height="11" rx="2"/><rect x="1360" y="270" width="9" height="11" rx="2"/><rect x="1390" y="270" width="9" height="11" rx="2"/></g><g transform="translate(1110 105)"><path d="M70 0h12l7 110h-26z" fill="#4a0008" opacity=".9"/><path d="M76 5c-10 8-15 17-15 27h30c0-10-5-19-15-27z" fill="#5a000b"/><rect x="59" y="110" width="34" height="145" rx="4" fill="#4a0008" opacity=".95"/><path d="M52 255h48l-10 15H62z" fill="#3b0007"/></g><g fill="#fff" opacity=".6"><circle cx="105" cy="130" r="4"/><circle cx="430" cy="105" r="3"/><circle cx="735" cy="150" r="4"/><circle cx="1010" cy="85" r="3"/><circle cx="1435" cy="140" r="4"/></g></svg>